<mxfile host="app.diagrams.net" modified="2023-04-26T03:45:44.092Z" agent="Mozilla/5.0 (Windows NT 10.0; Win64; x64) AppleWebKit/537.36 (KHTML, like Gecko) Chrome/112.0.0.0 Safari/537.36 Edg/112.0.1722.58" version="21.2.2" etag="uRT_JCu9HdERJ7juMFY0" type="github">
  <diagram name="第 1 页" id="EV3xMMr42UK0EhGGr3SO">
    <mxGraphModel>
      <root>
        <mxCell id="0" />
        <mxCell id="1" parent="0" />
      </root>
    </mxGraphModel>
  </diagram>
</mxfile>
